<?xml version="1.0" encoding="utf-8"?>

<!-- Uploaded to: SVG Repo, www.svgrepo.com, Generator: SVG Repo Mixer Tools -->
<svg fill="#000000" height="800px" width="800px" version="1.1" id="Icons" xmlns="http://www.w3.org/2000/svg" xmlns:xlink="http://www.w3.org/1999/xlink" 
	 viewBox="0 0 32 32" xml:space="preserve">
<g>
	<path d="M16.9,18.1c-0.2,0.2-0.4,0.5-0.6,0.7c-1.1-1-2.1-2-3.1-3.1c0.3-0.2,0.5-0.4,0.7-0.6c2.2-2.2,2-5.3-0.7-8
		c-2.7-2.7-5.8-3-8-0.7c-2.3,2.3-2.7,6.5-0.9,9.3c3,4.5,7.5,9,12,12c1.2,0.8,2.6,1.2,4.1,1.2c1.9,0,3.9-0.7,5.2-2
		c2.2-2.2,2-5.3-0.7-8C22.2,16.1,19.2,15.8,16.9,18.1z"/>
	<path d="M18,3.1c-0.6,0-1,0.4-1,1s0.4,1,1,1c4.9,0,8.9,4,8.9,8.9c0,0.6,0.4,1,1,1s1-0.4,1-1C29,7.9,24.1,3.1,18,3.1z"/>
	<path d="M22,13.7c0,0.6,0.4,1,1,1s1-0.4,1-1c0-3.1-2.7-5.7-6-5.7c-0.6,0-1,0.4-1,1s0.4,1,1,1C20.2,10,22,11.7,22,13.7z"/>
</g>
</svg>